<?xml version="1.0" standalone="no"?>
<!DOCTYPE svg PUBLIC "-//W3C//DTD SVG 20010904//EN"
 "http://www.w3.org/TR/2001/REC-SVG-20010904/DTD/svg10.dtd">
<svg version="1.0" xmlns="http://www.w3.org/2000/svg"
 width="512.000000pt" height="512.000000pt" viewBox="0 0 512.000000 512.000000"
 preserveAspectRatio="xMidYMid meet">

<g transform="translate(0.000000,512.000000) scale(0.100000,-0.100000)"
fill="#000000" stroke="none">
<path d="M960 2886 c0 -2120 1 -2235 18 -2240 9 -3 571 -148 1247 -321 677
-174 1238 -318 1248 -321 16 -5 17 14 17 300 l0 306 333 2 332 3 3 2253 2
2252 -1600 0 -1600 0 0 -2234z m2860 -21 l0 -1925 -165 0 -165 0 0 1790 c0
985 -2 1790 -4 1790 -10 0 -1022 262 -1025 266 -2 2 302 4 677 4 l682 0 0
-1925z m-1583 1634 l913 -234 0 -1919 0 -1918 -22 6 c-13 3 -429 110 -925 238
l-903 232 0 1919 c0 1531 3 1918 13 1915 6 -3 423 -110 924 -239z"/>
<path d="M2717 2645 c-48 -17 -76 -41 -93 -82 -19 -44 -18 -69 7 -120 53 -110
205 -109 259 2 36 74 13 147 -56 186 -44 25 -75 29 -117 14z"/>
</g>
</svg>
