<svg width="33" height="33" viewBox="0 0 33 33" fill="none" xmlns="http://www.w3.org/2000/svg">
<path d="M14.2076 0.848723C6.55691 0.848723 0.333252 7.07238 0.333252 14.7231C0.333252 22.3738 6.55691 28.5975 14.2076 28.5975C16.5465 28.5975 18.8457 28.0425 20.7881 26.9722C20.9437 27.1595 21.1162 27.332 21.3034 27.4876L25.2675 31.4517C25.6336 31.8635 26.0799 32.1963 26.5792 32.4294C27.0785 32.6625 27.6201 32.7911 28.1709 32.8073C28.7217 32.8235 29.2699 32.727 29.7821 32.5237C30.2942 32.3203 30.7593 32.0144 31.149 31.6248C31.5386 31.2352 31.8445 30.77 32.0478 30.2579C32.2512 29.7458 32.3477 29.1975 32.3315 28.6467C32.3153 28.0959 32.1867 27.5543 31.9535 27.055C31.7204 26.5557 31.3877 26.1094 30.9758 25.7433L27.0117 21.7792C26.8186 21.5861 26.6061 21.4134 26.3775 21.2639C27.4478 19.3215 28.1217 17.0619 28.1217 14.6835C28.1217 7.03274 21.898 0.809082 14.2473 0.809082L14.2076 0.848723ZM14.2076 4.81283C19.7178 4.81283 24.1179 9.213 24.1179 14.7231C24.1179 17.3394 23.1665 19.7575 21.5016 21.5414C21.462 21.581 21.4223 21.6207 21.3827 21.6603C21.1954 21.8159 21.0229 21.9884 20.8674 22.1756C19.1231 23.7613 16.7447 24.673 14.168 24.673C8.65789 24.673 4.25772 20.2729 4.25772 14.7628C4.25772 9.25264 8.65789 4.85248 14.168 4.85248L14.2076 4.81283Z" fill="white"/>
</svg>
