<svg width="50" height="47" viewBox="0 0 50 47" fill="none" xmlns="http://www.w3.org/2000/svg">
<path d="M24.1667 25.9476C24.1667 26.579 23.5246 27.3952 22.3333 27.3952C21.1421 27.3952 20.5 26.579 20.5 25.9476C20.5 25.3162 21.1421 24.5 22.3333 24.5C23.5246 24.5 24.1667 25.3162 24.1667 25.9476Z" fill="#FA00FF" stroke="white" stroke-width="3"/>
<path d="M41.0298 18.3753L41.0347 18.3902L41.04 18.4049L42.7942 23.3531C42.7943 23.3536 42.7945 23.3541 42.7947 23.3546C43.0512 24.0858 42.9813 24.8761 42.5798 25.579C42.1726 26.2918 41.4363 26.886 40.4804 27.1793L40.4769 27.1804L40.0427 27.3148C40.041 27.3153 40.0393 27.3159 40.0375 27.3164C39.1849 27.5744 38.3993 28.0166 37.7552 28.6192C37.1116 29.2213 36.6263 29.9682 36.3601 30.8037C36.1069 31.5719 36.0421 32.3845 36.1733 33.1823C36.305 33.983 36.6288 34.7371 37.11 35.3944L37.1218 35.4106L37.1341 35.4265L37.7118 36.1732L37.715 36.1772C38.2327 36.8417 38.4223 37.6216 38.2921 38.3655C38.1615 39.1115 37.7054 39.8353 36.9475 40.3593L32.4479 43.3386L32.4417 43.3427L32.4357 43.3468C32.0584 43.6019 31.6164 43.7923 31.1352 43.8986C30.654 44.0049 30.1511 44.0233 29.6597 43.9518C29.1683 43.8803 28.7065 43.7215 28.3022 43.4918C27.8981 43.2622 27.5648 42.9695 27.3147 42.6403L27.3039 42.626L27.2927 42.612L27.0382 42.2932C26.5173 41.6078 25.8246 41.0672 25.0369 40.705C24.2424 40.3397 23.3662 40.1623 22.4878 40.1814L22.4861 40.1814C21.6534 40.2005 20.8306 40.3922 20.0827 40.7483C19.3346 41.1045 18.6738 41.6197 18.1647 42.2655L18.1646 42.2656L17.6535 42.9141L17.6334 42.9395L17.6145 42.9657C17.3741 43.2994 17.0502 43.5987 16.6538 43.8372C16.274 44.0656 15.8395 44.2309 15.3739 44.318C15.192 44.3306 15.0092 44.329 14.8277 44.3133L14.7551 44.307L14.6824 44.3077C13.891 44.3161 13.133 44.0986 12.5206 43.7081L7.93372 40.6317L7.92617 40.6268C7.12945 40.0993 6.65315 39.3531 6.52416 38.5849C6.39611 37.8223 6.60617 37.022 7.1633 36.3511L7.18219 36.3283L7.20017 36.3049C7.7568 35.5781 8.1215 34.7297 8.24767 33.8274C8.37395 32.9244 8.25506 32.0108 7.90741 31.1666L7.90443 31.1594L7.90137 31.1522L7.79307 30.8968C7.53687 30.1312 7.09176 29.4439 6.50749 28.8811C5.90534 28.3011 5.17067 27.8675 4.37002 27.6021L4.14025 27.526H3.89819H3.77799C2.90846 27.221 2.23812 26.6592 1.85889 25.993C1.45791 25.2887 1.39399 24.4958 1.66198 23.7653L1.66204 23.7653L1.66657 23.7526L3.4888 18.6434L3.4932 18.6311L3.49739 18.6187C3.61427 18.2719 3.81507 17.9367 4.09924 17.6383L3.05509 16.6439L4.09924 17.6383C4.38389 17.3394 4.7455 17.0848 5.16768 16.8995L5.17726 16.8953L5.18678 16.891C5.58851 16.708 6.0351 16.596 6.49874 16.5667C6.96238 16.5374 7.42589 16.5919 7.85927 16.7245L7.85926 16.7246L7.87033 16.7279C8.7421 16.9873 9.66748 17.0536 10.5698 16.9236C11.4721 16.7936 12.337 16.4693 13.0878 15.9671L13.0878 15.9671L13.0974 15.9606L13.3863 15.7641L13.3969 15.7568L13.4074 15.7494C14.0883 15.269 14.6547 14.6482 15.0513 13.9228C15.4485 13.1962 15.6618 12.3888 15.6648 11.5622H15.6649V11.5566V11.085H15.6649L15.6648 11.0775C15.6611 10.3341 15.9879 9.57714 16.6467 8.98438C17.3097 8.38784 18.2469 8.01981 19.263 8.00635H24.9185C25.4058 8.0077 25.8846 8.09424 26.3258 8.25765C26.7667 8.42088 27.1557 8.65535 27.4747 8.93987C28.1562 9.5536 28.4939 10.339 28.4871 11.1111L28.4871 11.1111V11.1243V11.6604C28.4734 12.4649 28.6728 13.253 29.0583 13.9596C29.4458 14.6697 30.0064 15.2711 30.6797 15.7267L30.6942 15.7366L30.7091 15.7461L30.9454 15.8982C31.6341 16.3527 32.4237 16.6462 33.246 16.7651C34.0705 16.8844 34.9162 16.8264 35.7147 16.5937C35.7161 16.5932 35.7176 16.5928 35.719 16.5924L36.4663 16.3786L36.4663 16.3787L36.4757 16.3759C36.9422 16.2392 37.439 16.186 37.9344 16.2217C38.4299 16.2575 38.9065 16.3809 39.3351 16.5796C39.7637 16.7783 40.13 17.0455 40.4185 17.3569C40.7065 17.6677 40.9106 18.0155 41.0298 18.3753ZM17.1474 33.167C18.666 34.0643 20.4348 34.5347 22.2315 34.5347C24.6367 34.5347 26.9748 33.6915 28.7249 32.144C30.4809 30.5911 31.5093 28.4426 31.5093 26.157C31.5093 24.4559 30.9378 22.8113 29.8953 21.4316C28.8549 20.0548 27.3966 19.007 25.7239 18.3943C24.0515 17.7818 22.2199 17.6236 20.4543 17.9341C18.6887 18.2447 17.0448 19.0146 15.7382 20.17C14.4297 21.3271 13.5135 22.8247 13.1398 24.486C12.7655 26.1499 12.9599 27.8721 13.6874 29.4253C14.4133 30.9749 15.6278 32.2692 17.1474 33.167Z" fill="#FA00FF" stroke="white" stroke-width="3"/>
</svg>
