<svg width="198" height="202" viewBox="0 0 198 202" fill="none" xmlns="http://www.w3.org/2000/svg">
<mask id="path-1-inside-1_113_119" fill="white">
<path fill-rule="evenodd" clip-rule="evenodd" d="M83.6429 0C72.5972 0 63.6429 8.9543 63.6429 20V64.9286H20C8.9543 64.9286 0 73.8829 0 84.9286V114.929C0 125.974 8.9543 134.929 20 134.929H63.6429V182C63.6429 193.046 72.5972 202 83.6429 202H113.643C124.689 202 133.643 193.046 133.643 182V134.929H178C189.046 134.929 198 125.974 198 114.929V84.9286C198 73.8829 189.046 64.9286 178 64.9286H133.643V20C133.643 8.95431 124.689 0 113.643 0H83.6429Z"/>
</mask>
<path fill-rule="evenodd" clip-rule="evenodd" d="M83.6429 0C72.5972 0 63.6429 8.9543 63.6429 20V64.9286H20C8.9543 64.9286 0 73.8829 0 84.9286V114.929C0 125.974 8.9543 134.929 20 134.929H63.6429V182C63.6429 193.046 72.5972 202 83.6429 202H113.643C124.689 202 133.643 193.046 133.643 182V134.929H178C189.046 134.929 198 125.974 198 114.929V84.9286C198 73.8829 189.046 64.9286 178 64.9286H133.643V20C133.643 8.95431 124.689 0 113.643 0H83.6429Z" fill="#8F2C58"/>
<path d="M63.6429 64.9286V69.9286H68.6429V64.9286H63.6429ZM63.6429 134.929H68.6429V129.929H63.6429V134.929ZM133.643 134.929V129.929H128.643V134.929H133.643ZM133.643 64.9286H128.643V69.9286H133.643V64.9286ZM68.6429 20C68.6429 11.7157 75.3586 5 83.6429 5V-5C69.8357 -5 58.6429 6.19287 58.6429 20H68.6429ZM68.6429 64.9286V20H58.6429V64.9286H68.6429ZM20 69.9286H63.6429V59.9286H20V69.9286ZM5 84.9286C5 76.6443 11.7157 69.9286 20 69.9286V59.9286C6.19288 59.9286 -5 71.1215 -5 84.9286H5ZM5 114.929V84.9286H-5V114.929H5ZM20 129.929C11.7157 129.929 5 123.213 5 114.929H-5C-5 128.736 6.19288 139.929 20 139.929V129.929ZM63.6429 129.929H20V139.929H63.6429V129.929ZM68.6429 182V134.929H58.6429V182H68.6429ZM83.6429 197C75.3586 197 68.6429 190.284 68.6429 182H58.6429C58.6429 195.807 69.8357 207 83.6429 207V197ZM113.643 197H83.6429V207H113.643V197ZM128.643 182C128.643 190.284 121.927 197 113.643 197V207C127.45 207 138.643 195.807 138.643 182H128.643ZM128.643 134.929V182H138.643V134.929H128.643ZM178 129.929H133.643V139.929H178V129.929ZM193 114.929C193 123.213 186.284 129.929 178 129.929V139.929C191.807 139.929 203 128.736 203 114.929H193ZM193 84.9286V114.929H203V84.9286H193ZM178 69.9286C186.284 69.9286 193 76.6443 193 84.9286H203C203 71.1215 191.807 59.9286 178 59.9286V69.9286ZM133.643 69.9286H178V59.9286H133.643V69.9286ZM128.643 20V64.9286H138.643V20H128.643ZM113.643 5C121.927 5 128.643 11.7157 128.643 20H138.643C138.643 6.19288 127.45 -5 113.643 -5V5ZM83.6429 5H113.643V-5H83.6429V5Z" fill="black" mask="url(#path-1-inside-1_113_119)"/>
</svg>
